<?xml version="1.0" standalone="no"?>
<!DOCTYPE svg PUBLIC "-//W3C//DTD SVG 20010904//EN"
 "http://www.w3.org/TR/2001/REC-SVG-20010904/DTD/svg10.dtd">
<svg version="1.0" xmlns="http://www.w3.org/2000/svg"
 width="1536.000000pt" height="1536.000000pt" viewBox="0 0 1536.000000 1536.000000"
 preserveAspectRatio="xMidYMid meet">

<g transform="translate(0.000000,1536.000000) scale(0.100000,-0.100000)"
fill="#000000" stroke="none">
<path d="M6385 12463 c-37 -9 -176 -96 -202 -127 -14 -17 -35 -50 -45 -74 -16
-36 -22 -41 -38 -32 -47 25 -39 2 13 -39 41 -31 44 -32 107 -26 35 4 73 13 83
20 11 8 26 11 33 8 21 -8 114 26 147 53 16 13 23 24 17 24 -6 0 -8 5 -5 10 4
6 11 8 16 5 5 -3 6 0 3 8 -3 9 3 16 14 19 26 7 47 -6 36 -23 -4 -7 7 -3 25 10
19 13 34 35 38 52 3 16 12 29 20 29 9 0 13 8 11 23 -5 39 -78 67 -173 66 -44
-1 -89 -3 -100 -6z m80 -73 c0 -32 -42 -41 -62 -14 -17 24 2 46 36 42 20 -2
26 -9 26 -28z"/>
<path d="M8933 12464 c-39 -9 -47 -29 -32 -82 14 -50 27 -67 72 -95 19 -13 27
-14 27 -5 0 7 11 0 25 -17 13 -16 24 -27 25 -23 0 4 16 -1 36 -13 52 -29 53
-16 2 21 -23 17 -47 38 -51 46 -5 8 -12 12 -18 9 -5 -4 -9 9 -9 27 0 28 -5 35
-31 45 -39 15 -33 35 12 44 49 11 62 -4 44 -49 -14 -31 -14 -38 0 -58 8 -13
44 -37 79 -53 35 -17 66 -38 69 -45 8 -21 66 -49 89 -42 12 3 32 -4 50 -17 27
-20 30 -20 56 -5 33 20 39 56 15 95 -21 34 -100 107 -125 116 -10 4 -18 12
-18 19 0 7 -24 29 -53 48 -49 32 -57 34 -147 36 -52 1 -105 0 -117 -2z m211
-69 c13 -20 14 -25 3 -25 -17 0 -49 34 -40 43 11 12 20 8 37 -18z"/>
<path d="M6530 12259 c0 -5 5 -7 10 -4 6 3 10 8 10 11 0 2 -4 4 -10 4 -5 0
-10 -5 -10 -11z"/>
<path d="M7445 10143 c-11 -3 -28 -12 -37 -21 -13 -10 -18 -11 -18 -3 0 7 -10
11 -22 10 -13 -2 -29 0 -35 4 -7 5 -18 5 -25 1 -19 -12 -96 -15 -103 -4 -5 8
-11 8 -19 1 -14 -12 -84 -10 -103 2 -6 4 -14 3 -18 -3 -4 -6 -12 -7 -18 -3
-17 11 -171 3 -178 -9 -4 -7 -9 -7 -13 0 -3 5 -27 8 -53 5 -129 -10 -169 -10
-180 -1 -9 7 -18 7 -28 -2 -12 -10 -18 -10 -30 0 -11 9 -19 9 -28 2 -7 -6 -23
-9 -34 -6 -14 4 -30 -1 -44 -15 -28 -26 -36 -26 -44 -1 -4 14 -13 19 -23 16
-72 -22 -108 -24 -131 -9 -18 12 -25 12 -31 3 -6 -9 -22 -11 -54 -7 -26 4 -48
2 -51 -4 -4 -5 -21 -7 -40 -3 -28 5 -34 3 -40 -15 -8 -27 -27 -27 -43 -1 -7
12 -17 18 -23 14 -6 -3 -28 -6 -49 -6 -30 1 -40 -4 -45 -19 -7 -20 -30 -26
-39 -10 -10 16 -100 -1 -123 -23 -12 -11 -28 -21 -35 -22 -7 0 -30 -2 -50 -2
-31 -2 -39 -6 -44 -26 -5 -21 -9 -23 -35 -16 -24 7 -31 5 -40 -12 -8 -15 -14
-17 -22 -9 -15 15 -44 14 -50 -1 -3 -10 -7 -10 -19 0 -13 10 -18 9 -28 -3 -7
-8 -24 -15 -37 -15 -22 0 -24 -3 -18 -30 8 -36 -5 -39 -47 -9 -25 18 -32 19
-39 8 -5 -8 -9 -20 -9 -26 0 -19 -9 -16 -29 8 l-17 21 -14 -26 c-8 -15 -22
-26 -34 -26 -26 0 -41 -10 -49 -34 -5 -13 -13 -17 -31 -12 -14 3 -27 2 -31 -3
-11 -19 -68 -41 -91 -35 -19 5 -26 1 -34 -20 -11 -29 -20 -32 -38 -14 -10 10
-17 7 -35 -16 -19 -24 -29 -28 -55 -24 -30 4 -32 3 -32 -28 0 -34 -13 -44 -55
-44 -13 0 -26 -4 -29 -9 -3 -5 -16 -7 -28 -3 -17 4 -20 2 -14 -13 7 -18 -18
-55 -37 -55 -6 0 -21 10 -34 22 -26 25 -40 19 -24 -10 14 -26 14 -62 1 -62 -5
0 -10 5 -10 10 0 6 -7 10 -15 10 -9 0 -12 -6 -9 -15 4 -9 -1 -18 -11 -21 -11
-5 -26 4 -46 27 -29 34 -29 34 -19 6 12 -33 13 -87 3 -87 -5 1 -19 7 -33 15
-35 20 -43 18 -36 -8 3 -13 0 -32 -8 -42 -13 -18 -15 -18 -51 4 -21 12 -39 20
-41 18 -2 -2 3 -18 12 -35 16 -34 12 -52 -12 -52 -8 0 -14 -7 -14 -15 0 -9
-13 -28 -28 -43 -16 -15 -31 -35 -35 -45 -8 -21 -30 -22 -47 -2 -7 8 -24 15
-37 15 l-25 0 26 -47 c29 -52 28 -60 -6 -42 -12 7 -26 12 -30 11 -5 -1 -8 3
-8 8 0 6 -7 10 -15 10 -16 0 -21 -16 -6 -22 5 -1 12 -17 15 -34 7 -30 6 -31
-19 -26 -24 4 -26 2 -23 -24 2 -22 -1 -29 -14 -28 -12 1 -18 -6 -18 -20 0 -11
-1 -32 -1 -45 0 -14 -7 -25 -20 -28 -12 -3 -19 -14 -19 -29 0 -13 -4 -24 -10
-24 -5 0 -10 -8 -10 -19 0 -25 -25 -45 -51 -38 -19 5 -20 4 -5 -19 15 -22 15
-25 -4 -44 -14 -14 -27 -18 -49 -14 -33 7 -33 3 -15 -78 5 -21 3 -28 -9 -28
-9 0 -20 8 -26 17 -17 31 -23 6 -6 -27 21 -41 11 -74 -21 -67 -19 3 -24 -1
-29 -24 -4 -15 -2 -36 4 -46 13 -26 -1 -47 -27 -39 -31 10 -34 -7 -6 -37 l25
-27 -25 0 c-31 0 -44 -19 -22 -32 22 -12 20 -28 -3 -28 -28 0 -24 -38 8 -72
23 -26 24 -28 5 -28 -29 0 -35 -9 -23 -32 14 -27 6 -32 -30 -20 -21 8 -33 8
-37 0 -4 -6 -2 -13 3 -17 6 -3 13 -18 17 -34 6 -26 5 -27 -20 -21 -27 7 -27 7
-21 -39 6 -40 4 -47 -13 -52 -21 -7 -28 -25 -10 -25 6 0 10 -6 10 -14 0 -9 -7
-12 -20 -9 -26 7 -25 -1 5 -41 33 -44 32 -50 -10 -43 l-36 6 26 -30 c30 -36
26 -48 -12 -41 -27 5 -28 4 -11 -15 22 -24 23 -33 2 -33 -14 0 -14 -3 -4 -15
9 -11 9 -15 1 -15 -8 0 -9 -5 -1 -19 12 -23 13 -61 2 -61 -4 0 -13 5 -20 12
-8 8 -12 8 -12 1 0 -6 7 -16 15 -23 17 -14 20 -40 5 -40 -6 0 -8 -20 -5 -50 6
-54 2 -59 -27 -33 -16 14 -18 14 -18 1 0 -9 7 -21 15 -28 26 -21 19 -41 -10
-30 -30 11 -33 -3 -9 -38 14 -21 14 -22 -10 -22 -29 0 -33 -15 -11 -44 21 -28
19 -36 -10 -36 -30 0 -31 -3 -4 -39 25 -34 17 -55 -18 -46 -28 7 -23 -10 10
-34 20 -14 20 -14 -2 -23 -17 -6 -21 -13 -16 -28 8 -24 2 -25 -20 -4 -15 15
-15 14 -9 -10 4 -17 2 -26 -6 -26 -10 0 -10 -3 0 -15 10 -12 10 -15 -3 -15
-12 0 -10 -6 8 -26 27 -29 25 -44 -6 -44 -20 0 -20 0 -1 -27 16 -23 17 -30 6
-40 -7 -7 -21 -13 -31 -13 -14 -1 -12 -5 9 -21 29 -21 36 -43 18 -54 -6 -4
-18 -1 -26 6 -8 6 -18 9 -22 5 -4 -4 1 -12 11 -17 24 -14 23 -43 -2 -36 -14 3
-17 0 -14 -14 4 -15 1 -18 -11 -13 -17 7 -22 -11 -6 -21 16 -10 12 -45 -5 -45
-19 0 -19 -17 0 -37 17 -16 12 -33 -11 -33 -18 0 -18 -5 3 -36 15 -24 15 -25
-5 -31 -27 -7 -28 -19 -2 -26 33 -8 23 -27 -14 -27 -42 0 -59 -20 -19 -21 18
-1 22 -3 10 -6 -18 -5 -18 -6 -1 -24 20 -22 26 -46 14 -54 -4 -3 -6 -14 -3
-25 5 -17 0 -20 -31 -20 -40 0 -45 -6 -18 -26 16 -12 15 -13 -5 -14 -33 0 -28
-19 7 -31 17 -6 30 -14 30 -19 0 -13 -39 -19 -44 -6 -3 8 -5 8 -5 0 -1 -7 10
-19 24 -28 35 -23 31 -34 -12 -38 -20 -2 -38 -8 -40 -14 -2 -7 6 -10 24 -7 19
3 24 2 15 -5 -10 -7 -10 -11 3 -22 23 -19 18 -28 -17 -38 l-33 -9 28 -11 c27
-12 37 -41 15 -44 -7 0 -17 -2 -23 -3 -5 -2 -14 -3 -20 -4 -5 0 1 -8 13 -17
30 -21 30 -48 -2 -40 -31 8 -40 -3 -19 -26 14 -16 14 -18 1 -18 -17 0 -31 -26
-22 -41 3 -5 11 -9 18 -9 25 0 13 -30 -13 -31 l-26 -1 28 -11 c34 -14 35 -27
2 -27 -27 0 -32 -9 -13 -28 8 -8 8 -15 -2 -27 -11 -13 -10 -18 4 -33 20 -23
21 -36 1 -28 -25 9 -56 -7 -45 -24 9 -13 10 -13 10 0 1 9 6 5 14 -9 11 -19 11
-29 2 -43 -8 -14 -8 -23 2 -38 11 -18 10 -20 -19 -20 -26 0 -29 -3 -24 -20 5
-16 3 -19 -12 -13 -16 6 -16 5 -4 -10 7 -9 19 -17 26 -17 7 0 15 -7 19 -15 3
-8 1 -15 -4 -15 -6 0 -9 -6 -7 -12 1 -8 -7 -12 -22 -10 -23 2 -24 1 -8 -16 18
-20 23 -37 8 -28 -4 3 -17 -1 -27 -9 -18 -13 -17 -15 14 -25 33 -12 41 -25 20
-33 -10 -3 -10 -7 -1 -19 11 -12 9 -18 -9 -34 -12 -10 -18 -13 -14 -6 4 7 1
12 -8 12 -24 0 -19 -26 8 -44 34 -22 28 -52 -9 -48 -25 3 -27 1 -16 -12 16
-19 7 -51 -11 -40 -8 5 -9 2 -3 -12 5 -10 9 -33 9 -50 1 -17 6 -37 13 -45 17
-21 0 -43 -26 -34 -24 7 -28 -7 -6 -25 20 -17 20 -54 0 -46 -8 3 -15 1 -15 -3
0 -5 7 -11 15 -15 16 -6 21 -36 7 -36 -5 0 -14 -11 -20 -25 -10 -21 -9 -27 4
-32 8 -3 13 -11 10 -18 -5 -14 18 -38 49 -50 12 -4 15 -9 8 -12 -8 -3 -10 -15
-6 -34 5 -27 3 -29 -23 -29 -22 0 -25 3 -16 12 19 19 14 30 -10 22 -28 -8 -24
-4 -33 -33 -6 -19 -4 -23 7 -18 21 7 34 -4 42 -36 l7 -28 -29 15 c-16 8 -32
23 -36 32 -4 9 -9 14 -12 11 -3 -3 1 -16 9 -29 25 -39 30 -68 13 -68 -9 0 -16
5 -16 10 0 6 -7 10 -16 10 -13 0 -14 -3 -5 -13 6 -8 12 -23 14 -35 4 -28 13
-36 40 -37 12 0 23 -7 25 -17 2 -13 -3 -18 -17 -18 -31 0 -37 -21 -10 -43 l24
-19 -23 -18 c-28 -23 -28 -28 3 -22 21 4 26 0 31 -27 5 -26 10 -30 29 -25 28
7 40 -9 20 -26 -12 -10 -10 -16 15 -37 17 -14 30 -31 30 -39 0 -8 5 -14 10
-14 7 0 8 -13 4 -35 -6 -34 -5 -35 24 -35 34 0 50 -16 33 -33 -14 -14 -14 -57
-1 -57 6 0 13 7 16 15 7 16 34 21 34 5 0 -5 -6 -13 -14 -17 -17 -10 -37 -49
-29 -56 9 -10 43 12 43 28 0 8 7 15 16 15 10 0 14 -6 10 -15 -4 -10 1 -14 17
-12 23 2 24 0 13 -48 -7 -29 -7 -29 13 -11 14 13 28 16 46 12 22 -6 24 -9 14
-27 -12 -23 3 -51 15 -30 12 19 26 12 26 -14 0 -24 14 -34 24 -16 7 10 56 2
56 -10 0 -4 -4 -11 -10 -14 -5 -3 -15 -15 -20 -26 -11 -19 -10 -19 24 -5 l36
15 -6 -39 c-4 -23 -2 -40 3 -40 15 0 33 23 33 41 0 18 26 33 34 20 3 -4 1 -22
-4 -39 -15 -53 15 -51 38 1 16 37 32 26 32 -21 0 -26 7 -43 21 -56 21 -18 22
-18 15 7 -4 17 0 32 13 48 l19 24 9 -35 c10 -40 59 -73 73 -50 6 9 11 7 20 -9
7 -15 19 -21 33 -19 12 2 33 -7 47 -19 15 -15 27 -19 31 -12 5 8 8 8 13 0 5
-8 13 -8 26 -1 13 7 21 5 31 -7 12 -15 12 -16 -3 -10 -10 3 -20 2 -23 -4 -4
-5 -3 -9 2 -7 18 4 144 -15 149 -23 9 -16 47 -11 41 5 -89 231 -128 433 -125
646 l1 95 15 -50 c8 -27 18 -59 23 -70 5 -11 13 -60 19 -110 14 -117 32 -195
76 -327 32 -96 39 -127 43 -179 1 -11 12 -16 34 -17 17 -1 41 -4 52 -6 11 -2
25 1 31 6 8 5 18 3 27 -7 17 -16 37 -20 37 -7 0 8 34 8 125 0 17 -2 36 -7 43
-11 7 -5 12 -4 12 2 0 6 7 11 15 11 8 0 15 -4 15 -9 0 -5 9 -7 20 -4 11 3 28
2 37 -2 31 -14 43 -14 43 -1 0 9 20 14 64 15 56 1 66 -1 76 -19 13 -25 30 -26
30 -1 0 22 29 23 47 1 10 -12 12 -12 13 -1 0 7 6 11 15 7 8 -3 15 -1 15 5 0 5
12 1 27 -8 15 -10 24 -13 20 -6 -4 6 -3 14 3 18 5 3 10 -1 10 -10 0 -11 5 -15
15 -11 8 3 15 1 15 -4 0 -6 5 -10 10 -10 20 0 9 28 -36 96 -44 68 -209 393
-202 400 2 2 37 -22 78 -52 76 -57 285 -169 260 -139 -7 9 -30 25 -50 35 -53
27 -172 141 -229 219 -100 137 -134 216 -177 403 -27 121 -29 135 -9 93 7 -16
14 -24 14 -17 2 25 21 11 21 -15 0 -22 -2 -25 -10 -13 -11 18 -12 3 -1 -24 6
-16 10 -10 21 30 l13 49 9 -33 c10 -36 35 -39 30 -5 -2 13 7 29 24 42 29 23
59 28 49 9 -4 -7 0 -5 8 5 13 15 15 16 21 2 7 -18 52 -20 63 -2 4 8 16 16 25
20 22 8 21 64 -1 78 -13 8 -11 9 9 5 14 -3 29 -6 33 -6 5 0 5 -4 2 -10 -3 -5
0 -7 8 -4 8 3 34 -4 58 -14 24 -11 62 -23 84 -26 36 -5 37 -5 15 6 -47 22 10
20 70 -2 30 -11 42 -18 25 -15 -24 4 -27 3 -15 -6 12 -9 11 -10 -6 -6 -12 2
-32 -4 -45 -14 -13 -10 -38 -19 -55 -19 -24 0 -33 -5 -38 -22 -10 -41 -6 -67
12 -73 9 -3 34 -29 56 -57 26 -35 41 -47 46 -38 6 9 13 7 30 -10 18 -18 20
-24 9 -32 -10 -7 -6 -8 12 -4 19 4 29 1 33 -9 3 -9 17 -20 31 -25 14 -5 25
-14 25 -20 0 -26 30 -43 119 -66 30 -8 62 -23 71 -34 12 -14 20 -16 27 -9 8 8
17 5 32 -10 12 -12 28 -21 36 -21 8 0 20 -9 27 -20 10 -15 24 -20 60 -20 27 0
48 -4 48 -10 0 -5 -7 -10 -15 -10 -8 0 -15 -4 -15 -9 0 -14 25 -20 41 -10 23
14 33 11 51 -18 10 -16 18 -22 18 -15 0 15 80 17 80 2 0 -5 18 -10 39 -10 22
0 41 -5 44 -12 3 -10 9 -10 26 0 28 16 48 15 54 -2 3 -8 22 -18 41 -22 20 -3
36 -10 36 -15 0 -5 18 -9 40 -9 22 0 40 5 40 10 0 6 -18 10 -40 10 -22 0 -40
5 -40 10 0 6 18 10 40 10 22 0 40 -4 40 -10 0 -5 19 -15 43 -22 23 -6 45 -16
48 -20 3 -5 56 -13 117 -20 62 -6 112 -15 112 -19 0 -5 35 -9 78 -9 65 0 79 3
89 19 10 15 10 21 0 24 -7 3 -2 6 10 6 12 1 25 6 28 11 3 6 13 10 21 10 8 0
14 -4 14 -10 0 -5 -7 -10 -17 -10 -9 0 -14 -3 -11 -6 9 -9 73 12 71 24 -1 5
14 13 35 18 l37 7 -40 8 c-22 4 -66 14 -97 23 -32 9 -78 18 -104 20 -25 2 -48
7 -51 10 -10 9 -61 7 -65 -3 -1 -5 -39 -11 -83 -14 -59 -4 -69 -3 -40 3 22 5
57 9 78 9 67 1 31 18 -110 51 -76 17 -203 50 -283 71 -204 56 -194 54 -185 39
5 -9 4 -11 -4 -6 -6 4 -9 11 -6 16 3 4 -14 15 -37 23 -24 9 -68 25 -98 36 -30
12 -61 19 -68 16 -7 -3 -10 0 -7 5 3 5 -27 25 -67 45 -74 36 -176 102 -236
152 -18 15 -34 26 -37 23 -3 -3 -12 5 -20 18 -19 26 -37 29 -28 4 3 -9 -7 1
-23 23 -16 22 -27 45 -26 51 1 6 -22 23 -52 38 -30 15 -60 34 -67 43 -13 16
-12 16 11 0 13 -9 29 -17 34 -17 6 0 0 7 -12 16 -12 8 -20 20 -17 25 4 5 -1
12 -9 15 -9 3 -18 21 -22 40 -3 19 -10 34 -16 34 -5 0 -6 5 -3 10 3 6 -1 13
-9 16 -9 3 -16 12 -16 19 0 7 -11 35 -24 62 -13 26 -34 68 -46 93 -12 25 -30
61 -40 80 -10 19 -35 87 -55 150 -21 63 -41 120 -44 125 -9 13 -52 150 -86
275 -15 52 -45 149 -67 215 -37 108 -40 129 -40 213 1 51 8 148 16 215 9 67
24 212 36 321 11 110 22 201 25 204 3 3 2 -51 -1 -119 -10 -201 23 -412 91
-583 32 -81 79 -164 71 -126 -3 14 -8 44 -12 66 -6 41 -6 42 31 54 24 8 33 15
25 20 -7 5 -8 10 -2 14 5 3 15 -8 22 -24 16 -38 33 -50 25 -18 -6 27 6 35 196
139 115 63 300 149 321 149 16 0 8 -29 -9 -34 -44 -14 -133 -301 -133 -426 1
-68 21 -163 44 -210 35 -68 106 -166 138 -190 19 -13 27 -16 19 -7 -7 9 -10
17 -6 17 3 0 -16 26 -45 58 -66 74 -98 140 -116 242 -15 91 -12 130 19 238 14
52 27 78 44 89 29 19 95 19 171 -1 31 -8 69 -17 85 -21 18 -4 31 -15 40 -37
l13 -32 13 32 c15 36 41 48 70 32 14 -7 34 -7 63 0 63 14 108 13 102 -3 -2 -7
4 -22 16 -32 20 -18 20 -18 20 4 0 29 59 57 75 35 9 -13 16 -13 58 0 27 8 49
10 53 5 3 -5 9 -7 14 -4 23 14 60 -120 60 -216 0 -122 -60 -268 -141 -344 -37
-34 -44 -45 -29 -45 40 0 145 172 175 286 19 75 19 200 -1 304 -8 46 -12 86
-7 89 4 4 55 38 113 76 76 50 141 106 233 198 71 72 127 122 127 113 0 -26
-93 -226 -160 -345 -35 -61 -86 -136 -114 -168 -32 -37 -42 -52 -26 -42 14 8
61 37 106 63 45 27 108 72 142 102 33 30 63 54 67 54 13 0 -88 -109 -131 -141
-24 -18 -42 -35 -39 -37 9 -9 217 100 317 167 56 38 154 117 216 175 102 96
132 118 132 100 0 -12 -83 -158 -123 -218 -22 -33 -74 -96 -116 -140 l-76 -80
50 29 c28 16 68 38 90 48 67 33 126 77 212 159 46 43 87 78 93 78 20 0 -113
-152 -182 -209 -37 -30 -66 -56 -64 -58 10 -11 218 91 314 153 319 208 573
487 798 877 64 111 174 350 225 490 37 98 101 323 129 450 12 54 23 97 25 95
2 -2 0 -66 -5 -143 -34 -506 -132 -988 -275 -1350 -45 -115 -155 -320 -211
-395 -29 -39 -51 -70 -47 -70 3 0 48 37 100 83 248 214 457 569 619 1050 55
163 130 460 146 577 6 49 15 95 19 101 7 12 153 -35 327 -105 34 -13 62 -21
62 -18 0 4 4 2 8 -4 4 -6 32 -23 62 -39 114 -59 189 -109 200 -134 7 -14 41
-107 77 -206 266 -738 453 -1367 453 -1523 0 -53 -71 -365 -92 -406 -6 -10
-23 -64 -39 -120 -37 -133 -108 -331 -153 -431 -48 -106 -70 -149 -76 -155
-10 -9 -50 -90 -44 -90 3 0 -2 -7 -10 -16 -9 -8 -17 -27 -17 -42 -1 -17 -3
-21 -6 -10 -2 10 -8 18 -12 18 -11 0 -39 -54 -34 -68 3 -7 -1 -11 -9 -10 -7 2
-11 -3 -9 -12 2 -8 3 -25 3 -38 -2 -19 2 -22 26 -16 15 4 34 13 43 20 8 8 21
14 27 14 7 0 12 5 12 10 0 7 -6 7 -19 1 -10 -6 -21 -7 -25 -4 -14 15 -4 23 32
24 30 0 33 2 17 9 -17 7 -17 9 -2 9 9 1 17 8 17 16 0 8 5 15 11 15 7 0 9 12 6
33 -3 17 -2 41 3 52 7 17 9 14 10 -15 1 -19 3 -42 4 -50 0 -8 12 -16 26 -17
14 -1 18 0 8 3 -13 4 -18 16 -18 40 l0 34 53 0 c30 1 60 7 71 15 11 8 28 15
38 15 10 0 18 7 18 15 0 8 5 14 12 12 6 -1 14 9 18 23 5 22 12 25 58 28 37 2
51 7 46 15 -5 9 -4 9 6 0 11 -10 16 -9 27 5 13 15 13 14 3 -6 -6 -12 -16 -20
-21 -16 -6 3 -9 -2 -7 -12 2 -12 -2 -18 -10 -16 -8 1 -10 -2 -7 -8 10 -17 -24
-49 -47 -45 -16 4 -19 0 -15 -17 7 -25 -50 -91 -71 -83 -7 2 -11 1 -8 -4 9
-14 -39 -52 -57 -45 -12 4 -20 -1 -26 -17 -5 -15 -33 -37 -75 -58 -36 -18 -66
-36 -66 -39 0 -8 152 8 220 24 107 26 203 56 243 76 21 10 42 16 48 13 5 -4 8
-2 7 4 -2 6 7 17 19 24 12 6 41 25 63 41 22 16 43 27 45 24 6 -6 -8 -85 -47
-258 -20 -91 -45 -165 -74 -228 -67 -145 -202 -296 -342 -384 -34 -22 -61 -42
-59 -44 5 -5 116 40 181 73 27 14 76 45 109 69 56 40 87 54 87 38 0 -14 -122
-250 -144 -279 -13 -16 -30 -44 -39 -61 -9 -17 -41 -58 -72 -90 -59 -63 -63
-69 -40 -60 8 3 15 2 15 -2 0 -10 82 -2 94 8 5 5 22 6 37 3 24 -4 29 -2 29 13
1 18 1 18 14 1 14 -18 46 -23 46 -7 0 6 11 3 25 -6 20 -13 28 -14 40 -4 8 6
19 9 25 5 5 -3 13 1 16 9 5 13 9 12 25 -7 10 -12 18 -17 19 -11 0 13 50 26 50
13 0 -5 5 -9 10 -9 6 0 10 8 10 18 0 14 2 14 9 3 8 -13 12 -13 26 -1 14 12 18
12 26 -1 8 -12 10 -12 19 1 9 13 11 13 20 0 7 -11 10 -12 10 -2 0 10 10 12 35
9 24 -3 35 -1 35 8 0 19 50 6 50 -14 1 -12 5 -11 20 8 11 13 20 19 20 13 0 -5
9 -12 20 -15 14 -4 20 0 21 11 1 10 4 6 8 -8 l7 -25 8 23 c8 25 17 27 34 10 9
-9 12 -9 12 3 0 9 7 16 15 16 10 0 13 -6 9 -19 -9 -30 13 -20 34 15 54 88 123
374 138 572 4 49 14 105 22 125 12 26 16 78 17 210 2 234 3 246 15 234 12 -12
25 -298 25 -544 -1 -174 -3 -193 -32 -310 -18 -69 -46 -158 -62 -199 -17 -41
-31 -75 -31 -76 0 -2 16 -3 35 -2 19 1 35 5 35 10 0 4 9 5 20 2 12 -4 20 -2
20 4 0 6 12 11 28 10 39 -2 115 10 122 19 3 5 16 9 29 9 13 1 21 -1 17 -4 -8
-9 15 -34 25 -27 5 3 9 10 9 15 0 6 -6 7 -12 3 -9 -5 -8 -2 1 9 10 13 17 14
27 6 7 -6 18 -8 24 -4 5 3 10 -1 10 -9 0 -9 6 -16 14 -16 9 0 12 7 9 20 -4 14
0 20 10 20 9 0 17 8 19 17 3 16 6 15 26 -5 19 -19 22 -20 24 -4 0 9 1 25 0 35
-2 21 1 21 39 1 30 -15 31 -15 29 8 -4 41 -1 46 23 41 12 -3 28 -10 35 -16 19
-15 28 1 14 23 -11 18 -9 20 11 20 12 0 34 -8 47 -17 24 -16 24 -16 11 0 -12
15 -11 17 3 17 11 0 16 7 14 18 -2 12 5 18 23 20 17 2 29 11 32 23 4 15 11 19
25 14 16 -5 19 -2 15 13 -6 25 21 45 52 40 19 -4 23 -2 15 7 -8 9 -7 15 2 19
10 5 10 7 1 12 -23 10 -14 24 17 24 17 0 33 -7 39 -17 6 -10 11 -13 11 -7 0 6
-11 21 -25 34 -27 25 -33 43 -12 38 6 -2 22 7 35 20 19 19 23 35 25 108 2 47
0 87 -5 90 -4 3 -7 20 -5 39 1 26 5 31 15 22 11 -8 12 -5 6 19 -11 43 -9 87 4
92 8 2 7 11 -4 28 -13 19 -14 24 -3 24 11 0 11 2 -1 10 -11 7 -7 10 18 10 35
0 43 19 17 40 -8 7 -15 23 -15 36 0 12 -4 25 -9 28 -4 3 -7 35 -6 71 1 48 -2
65 -12 65 -7 0 -13 7 -13 15 0 8 5 15 10 15 6 0 10 -5 10 -12 0 -6 3 -8 6 -5
4 4 -1 18 -11 33 -13 20 -14 28 -5 34 7 4 9 13 5 20 -4 7 -10 27 -12 44 -1 17
-11 42 -21 56 -18 26 -21 67 -7 109 5 17 3 28 -8 36 -8 6 -22 28 -31 50 -16
37 -16 40 0 52 17 12 16 14 -3 35 -15 17 -19 32 -16 59 6 42 -17 70 -41 50
-16 -13 -19 -7 -31 62 -5 29 -3 37 10 37 23 0 19 41 -5 47 -22 6 -27 23 -7 23
8 0 7 3 -3 10 -8 5 -16 17 -16 27 -1 10 -5 27 -10 37 -6 16 -4 18 9 13 9 -3
17 -2 17 3 0 6 -4 10 -9 10 -8 0 -33 51 -37 75 -1 6 -5 23 -9 39 -5 19 -4 27
2 23 6 -4 13 2 16 13 3 11 2 22 -3 25 -4 2 -10 30 -14 61 -4 33 -15 67 -26 82
-11 14 -18 28 -14 31 3 3 12 -3 20 -13 8 -11 14 -15 14 -9 0 7 -4 15 -10 18
-5 3 -10 19 -10 36 0 16 -4 29 -10 29 -5 0 -10 11 -10 24 0 14 5 28 10 31 6 3
10 16 9 28 0 20 -1 21 -8 3 -10 -25 -25 -4 -16 23 3 11 1 22 -5 26 -7 4 -9 18
-6 31 4 16 1 26 -11 33 -15 8 -15 11 -4 25 12 14 11 20 -6 39 -11 12 -21 29
-21 37 -6 72 -11 102 -21 113 -6 8 -9 22 -5 31 3 9 1 23 -6 31 -6 7 -10 22 -9
32 1 10 -3 31 -9 46 -7 16 -12 38 -12 51 0 12 -5 27 -10 32 -7 7 -8 19 -1 37
6 15 7 27 2 27 -7 0 -21 45 -25 82 -1 3 -4 10 -8 14 -5 4 -8 20 -8 35 0 15 -5
31 -11 34 -6 4 -8 13 -5 20 2 7 0 17 -5 22 -5 5 -11 36 -13 69 -2 32 -10 71
-17 87 -11 24 -10 30 9 50 21 22 21 26 9 63 -9 24 -24 44 -40 52 -18 9 -28 24
-33 48 -3 19 -4 38 0 41 3 3 2 11 -4 18 -10 12 -35 132 -51 245 -5 36 -18 90
-30 120 -12 30 -22 64 -23 75 -3 22 -20 70 -36 98 -7 12 -7 24 0 36 9 18 2 42
-30 102 -5 9 -6 26 -3 38 3 13 1 21 -7 21 -7 0 -10 6 -7 14 3 8 -1 17 -10 20
-9 4 -13 14 -10 26 3 11 2 20 -2 20 -10 0 -45 82 -44 103 1 9 -3 17 -9 17 -5
0 -8 6 -5 14 3 7 -5 35 -18 62 -13 26 -21 54 -18 61 3 8 -2 20 -12 27 -10 7
-15 18 -11 24 4 7 3 12 -2 12 -6 0 -13 11 -16 25 -4 14 -11 25 -16 25 -6 0
-10 10 -10 21 0 12 -7 27 -15 33 -8 6 -16 25 -18 41 -1 17 -22 59 -45 93 -47
73 -60 104 -43 110 6 2 11 8 11 14 0 7 -5 6 -14 -1 -18 -15 -30 1 -21 29 5 15
3 18 -9 14 -17 -7 -41 31 -30 48 4 7 3 8 -4 4 -8 -5 -12 0 -12 13 0 12 -9 26
-20 33 -11 7 -21 24 -21 38 -1 17 -3 19 -6 8 -9 -34 -22 -18 -16 19 5 27 3 34
-6 29 -18 -12 -41 25 -34 54 6 22 4 23 -9 12 -19 -15 -31 -2 -22 23 6 14 3 16
-16 10 -21 -7 -23 -5 -17 24 6 29 5 32 -13 26 -15 -5 -32 6 -70 44 -27 27 -50
53 -50 57 0 4 8 17 18 28 10 13 11 16 2 9 -15 -11 -42 -17 -67 -14 -7 0 -13
10 -13 21 0 11 -6 20 -13 20 -15 0 -87 68 -87 83 0 5 -6 7 -13 4 -17 -7 -51
19 -42 33 3 6 -8 24 -25 40 -35 33 -46 36 -52 18 -7 -20 -58 19 -58 44 0 17
-3 19 -11 11 -16 -16 -73 13 -65 32 3 9 0 12 -10 8 -8 -3 -26 4 -39 17 -14 13
-29 19 -36 15 -7 -5 -17 -2 -23 7 -15 20 -50 38 -75 38 -12 0 -21 7 -21 16 0
9 -8 14 -17 13 -32 -3 -43 1 -43 15 0 26 -128 41 -190 21 -19 -6 -21 -4 -15
13 11 36 -68 61 -99 31 -15 -14 -21 -12 -75 31 -44 35 -54 39 -72 30 -17 -10
-21 -8 -26 10 -5 17 -12 20 -45 18 -25 -1 -42 3 -48 12 -7 12 -16 12 -55 2
-60 -16 -65 -15 -65 8 0 23 -37 28 -71 9 -15 -7 -24 -7 -34 1 -8 7 -26 9 -43
5 -16 -3 -41 -1 -55 4 -17 7 -36 7 -51 1 -17 -6 -29 -5 -42 5 -23 17 -60 19
-70 3 -5 -8 -10 -7 -18 4 -6 8 -18 16 -26 17 -17 2 -202 9 -465 17 -99 3 -218
7 -265 8 -47 2 -102 6 -122 11 -26 5 -38 4 -38 -4 0 -15 -25 -14 -50 2 -17 10
-22 9 -30 -3 -8 -13 -11 -12 -24 5 -14 18 -15 18 -16 3 0 -22 -18 -24 -26 -3
-8 21 -51 19 -63 -2 -10 -17 -10 -17 -11 0 0 9 -4 17 -10 17 -5 0 -10 -8 -10
-17 -1 -17 -1 -17 -11 0 -13 22 -69 24 -69 2 0 -19 -10 -19 -24 1 -9 12 -17
13 -41 4 -23 -9 -30 -8 -37 5 -9 15 -17 17 -53 8z m1678 -838 c14 -33 54 -127
90 -210 35 -82 89 -215 120 -295 31 -80 70 -179 87 -220 46 -111 260 -679 260
-692 0 -7 -4 -7 -14 1 -7 6 -22 9 -32 5 -15 -5 -16 -4 -4 4 21 16 -263 149
-430 203 -74 23 -138 45 -142 48 -3 3 -2 31 3 61 14 82 28 261 39 489 9 189 4
379 -16 616 -6 81 2 79 39 -10z m-4108 -444 c27 -11 131 -47 230 -81 266 -92
592 -216 599 -229 4 -5 -28 -89 -37 -97 -10 -11 -360 109 -577 196 -25 10 -98
35 -163 56 -65 20 -119 40 -121 43 -2 3 -7 34 -11 69 -8 72 -4 75 80 43z
m1715 -973 c-78 -438 -190 -841 -305 -1099 -64 -144 -80 -169 -105 -169 -23 0
-61 30 -54 42 3 4 16 8 30 8 29 0 29 -1 7 61 -16 44 -21 49 -43 45 -14 -3 -70
-8 -125 -11 -55 -4 -133 -16 -174 -27 -41 -11 -88 -18 -105 -15 -49 8 -156 41
-156 48 0 8 94 89 134 114 16 11 50 42 77 70 26 28 100 102 165 165 252 248
500 573 635 833 18 36 35 64 37 62 2 -2 -6 -59 -18 -127z m3609 -1090 c19 -90
51 -350 51 -411 0 -36 -4 -56 -10 -52 -5 3 -10 0 -10 -8 0 -7 -9 -23 -20 -35
-11 -12 -20 -27 -20 -34 0 -8 -9 -32 -21 -53 -19 -37 -20 -38 -15 -10 19 111
31 278 30 453 0 111 1 202 2 202 1 0 7 -24 13 -52z m-4530 -83 c-3 -3 -28 -10
-55 -15 -27 -6 -54 -12 -60 -13 -6 -2 -19 -10 -28 -20 -20 -20 -32 -21 -42 -6
-3 6 5 21 20 34 21 18 39 23 98 24 39 1 69 -1 67 -4z m516 -115 c7 -11 -64
-140 -77 -140 -4 0 -18 21 -31 47 l-24 47 -58 -3 c-73 -3 -66 14 10 24 30 3
55 10 55 15 0 5 19 11 43 13 23 2 50 4 59 5 9 1 20 -3 23 -8z m-1386 -138 c10
-82 9 -97 -5 -127 -9 -19 -18 -35 -20 -35 -2 0 -4 62 -4 137 0 75 4 133 8 128
5 -6 14 -52 21 -103z m1173 51 c24 -21 27 -47 10 -82 -30 -63 -123 -83 -161
-35 -12 15 -21 34 -21 43 0 25 38 81 61 89 28 11 91 2 111 -15z m242 -224
c-13 -14 -21 -16 -28 -9 -8 8 -4 17 14 32 30 24 41 7 14 -23z m4106 -326 c0
-75 -2 -134 -4 -132 -4 4 -10 243 -7 262 0 4 3 7 6 7 3 0 5 -61 5 -137z m1460
-593 c0 -11 -7 -20 -15 -20 -8 0 -15 9 -15 20 0 11 7 20 15 20 8 0 15 -9 15
-20z m-1509 -13 c-10 -9 -11 -8 -5 6 3 10 9 15 12 12 3 -3 0 -11 -7 -18z
m1510 -60 c-1 -12 -15 -9 -19 4 -3 6 1 10 8 8 6 -3 11 -8 11 -12z m-1611 -221
c0 -3 -4 -8 -10 -11 -5 -3 -10 -1 -10 4 0 6 5 11 10 11 6 0 10 -2 10 -4z m-20
-36 c0 -5 -2 -10 -4 -10 -3 0 -8 5 -11 10 -3 6 -1 10 4 10 6 0 11 -4 11 -10z
m1680 -31 c0 -6 -4 -7 -10 -4 -5 3 -10 11 -10 16 0 6 5 7 10 4 6 -3 10 -11 10
-16z m-7030 -9 c0 -5 -2 -10 -4 -10 -3 0 -8 5 -11 10 -3 6 -1 10 4 10 6 0 11
-4 11 -10z m30 -64 c0 -6 -7 -1 -15 10 -8 10 -15 23 -15 28 0 6 7 1 15 -10 8
-10 15 -23 15 -28z m39 3 c-16 -15 -20 -23 -11 -26 6 -3 12 -9 12 -15 0 -6 -6
-6 -15 2 -8 7 -15 16 -15 21 0 11 30 39 42 39 6 0 0 -10 -13 -21z m4851 -110
c0 -14 -17 -10 -23 5 -4 10 -1 13 9 9 7 -3 14 -9 14 -14z m-4729 -26 c13 -16
12 -17 -3 -4 -17 13 -22 21 -14 21 2 0 10 -8 17 -17z m4696 -39 c-3 -3 -12 -4
-19 -1 -8 3 -5 6 6 6 11 1 17 -2 13 -5z m203 -18 c0 -3 -4 -8 -10 -11 -5 -3
-10 -1 -10 4 0 6 5 11 10 11 6 0 10 -2 10 -4z m-235 -36 c3 -5 1 -10 -4 -10
-6 0 -11 5 -11 10 0 6 2 10 4 10 3 0 8 -4 11 -10z m-5158 -42 c-3 -8 -6 -5 -6
6 -1 11 2 17 5 13 3 -3 4 -12 1 -19z m253 -8 c8 -5 11 -10 5 -10 -5 0 -17 5
-25 10 -8 5 -10 10 -5 10 6 0 17 -5 25 -10z m7150 -11 c0 -5 -4 -9 -10 -9 -5
0 -10 7 -10 16 0 8 5 12 10 9 6 -3 10 -10 10 -16z m-6763 -3 c4 -4 -11 -7 -34
-4 -33 3 -43 0 -43 -11 0 -8 -3 -12 -6 -8 -4 3 -4 12 -2 19 6 15 72 18 85 4z
m-2329 -74 c6 -18 -15 -14 -22 4 -4 10 -1 14 6 12 6 -2 14 -10 16 -16z m32 8
c0 -5 -4 -10 -10 -10 -5 0 -10 5 -10 10 0 6 5 10 10 10 6 0 10 -4 10 -10z m35
-150 c3 -5 -1 -10 -9 -10 -9 0 -16 5 -16 10 0 6 4 10 9 10 6 0 13 -4 16 -10z
m3502 -346 c-3 -3 -12 -4 -19 -1 -8 3 -5 6 6 6 11 1 17 -2 13 -5z m-37 -74 c0
-5 -20 -10 -45 -10 -25 0 -45 5 -45 10 0 6 20 10 45 10 25 0 45 -4 45 -10z
m218 -7 c-10 -2 -28 -2 -40 0 -13 2 -5 4 17 4 22 1 32 -1 23 -4z m3649 -365
c-3 -8 -6 -5 -6 6 -1 11 2 17 5 13 3 -3 4 -12 1 -19z"/>
<path d="M8706 6761 c-29 -30 -32 -56 -11 -103 5 -13 3 -18 -8 -18 -9 0 -18
-4 -21 -9 -3 -5 36 -14 86 -20 51 -7 94 -14 96 -16 3 -2 -16 -24 -41 -48 -54
-53 -117 -177 -149 -293 -29 -106 -32 -336 -5 -434 23 -84 62 -162 100 -197
24 -23 27 -24 16 -5 -8 12 -17 22 -22 22 -4 0 -6 4 -2 9 3 5 -6 26 -19 46 -97
143 -107 394 -23 565 18 37 27 45 50 46 15 1 38 -7 50 -16 20 -16 40 -22 107
-35 28 -5 50 -30 50 -57 0 -18 1 -18 22 2 24 22 22 22 132 20 44 -1 89 -6 100
-12 15 -8 22 -7 32 7 10 14 21 16 51 10 21 -4 68 -7 106 -6 40 1 67 -2 67 -9
0 -5 7 -10 15 -10 26 0 56 -87 62 -180 13 -206 -84 -382 -259 -471 -32 -16
-47 -29 -39 -33 15 -10 125 61 167 106 93 103 125 165 151 295 19 100 11 191
-32 327 -31 99 -60 144 -122 186 -42 28 -44 32 -18 25 17 -4 44 -8 60 -10 49
-5 196 -66 188 -77 -3 -7 -1 -8 5 -4 12 7 110 -22 161 -48 35 -19 202 -143
214 -160 5 -8 10 -6 17 4 5 8 10 11 10 5 0 -5 7 4 16 22 9 17 31 49 50 71 19
22 34 42 34 44 0 1 -13 4 -30 5 -42 3 -83 27 -113 66 -14 19 -52 52 -84 73
-75 50 -255 138 -335 164 -35 12 -69 23 -77 26 -11 3 -12 7 -3 16 7 7 12 22
12 34 0 21 -6 22 -105 29 -58 4 -108 11 -111 16 -3 5 -29 9 -57 9 -49 0 -400
34 -477 46 -30 5 -39 1 -64 -25z m359 -211 c-25 -6 -26 -8 -7 -9 30 -1 72 -44
72 -73 0 -56 -63 -92 -119 -68 -29 11 -51 46 -51 78 0 28 29 62 53 62 18 0 19
2 7 10 -11 7 -2 9 30 9 41 -1 42 -2 15 -9z m68 -164 c7 -19 -18 -42 -28 -26
-8 13 1 40 14 40 5 0 11 -6 14 -14z"/>
<path d="M9700 6336 c0 -3 9 -10 20 -16 11 -6 20 -8 20 -6 0 3 -9 10 -20 16
-11 6 -20 8 -20 6z"/>
<path d="M9777 6289 c7 -7 15 -10 18 -7 3 3 -2 9 -12 12 -14 6 -15 5 -6 -5z"/>
<path d="M8830 5580 c8 -5 20 -10 25 -10 6 0 3 5 -5 10 -8 5 -19 10 -25 10 -5
0 -3 -5 5 -10z"/>
<path d="M5651 5553 c13 -15 12 -15 -11 -4 l-25 12 24 -20 c24 -22 65 -26 111
-11 l25 8 -26 1 c-15 1 -46 8 -69 16 -39 14 -41 14 -29 -2z"/>
<path d="M11880 5485 c0 -5 5 -17 10 -25 5 -8 10 -10 10 -5 0 6 -5 17 -10 25
-5 8 -10 11 -10 5z"/>
<path d="M10163 4947 c-3 -5 0 -14 6 -20 9 -9 11 -8 6 6 -9 21 -1 22 19 2 13
-14 15 -13 13 4 -1 20 -33 25 -44 8z"/>
<path d="M10100 4883 c0 -19 21 -27 33 -13 9 10 9 11 -2 5 -8 -4 -17 -2 -22 6
-6 9 -9 10 -9 2z"/>
<path d="M2955 4800 c3 -5 13 -10 21 -10 8 0 12 5 9 10 -3 6 -13 10 -21 10 -8
0 -12 -4 -9 -10z"/>
<path d="M2921 4784 c0 -11 3 -14 6 -6 3 7 2 16 -1 19 -3 4 -6 -2 -5 -13z"/>
<path d="M10000 4779 c0 -5 5 -7 10 -4 6 3 10 8 10 11 0 2 -4 4 -10 4 -5 0
-10 -5 -10 -11z"/>
<path d="M9703 4701 c-9 -14 -9 -21 0 -30 17 -17 22 -13 23 19 1 34 -6 38 -23
11z"/>
<path d="M5055 4690 c-3 -5 -1 -10 4 -10 6 0 11 5 11 10 0 6 -2 10 -4 10 -3 0
-8 -4 -11 -10z"/>
<path d="M5072 4659 c6 -4 5 -8 -3 -11 -8 -3 1 -5 18 -4 18 1 33 4 33 8 0 4
10 8 23 11 12 2 -1 4 -30 3 -28 -1 -47 -4 -41 -7z"/>
<path d="M9666 4641 c-4 -5 3 -7 14 -4 23 6 26 13 6 13 -8 0 -17 -4 -20 -9z"/>
<path d="M4776 4614 c-22 -22 -20 -25 9 -12 14 6 25 15 25 20 0 13 -17 9 -34
-8z"/>
<path d="M9615 4620 c-3 -5 -2 -10 4 -10 5 0 13 5 16 10 3 6 2 10 -4 10 -5 0
-13 -4 -16 -10z"/>
<path d="M9630 4580 c0 -5 5 -10 10 -10 6 0 10 5 10 10 0 6 -4 10 -10 10 -5 0
-10 -4 -10 -10z"/>
<path d="M12067 4557 c-3 -9 1 -18 9 -21 16 -6 18 2 5 22 -7 11 -9 11 -14 -1z"/>
<path d="M12053 4485 c-3 -9 0 -27 6 -39 7 -12 14 -45 16 -72 4 -66 4 -64 16
-64 8 0 8 4 0 14 -8 10 -9 16 -1 21 6 3 8 11 5 16 -4 5 1 17 11 26 15 16 15
18 -5 34 -21 17 -30 46 -11 34 6 -3 10 0 10 7 0 7 -9 19 -20 26 -17 10 -21 10
-27 -3z"/>
<path d="M9192 4353 c-25 -12 -30 -18 -20 -25 9 -7 5 -8 -12 -4 -14 3 -34 -2
-44 -10 -18 -13 -15 -14 33 -14 48 0 53 2 48 20 -3 11 -1 20 4 20 5 0 9 -4 9
-10 0 -5 7 -10 16 -10 8 0 12 5 9 10 -3 6 -2 10 4 10 5 0 13 -4 16 -10 3 -5
12 -10 18 -9 9 0 9 2 0 6 -7 2 -13 12 -13 21 0 8 -3 12 -7 9 -3 -4 -11 -3 -17
2 -7 6 -24 4 -44 -6z"/>
<path d="M2972 4328 c5 -15 28 -23 28 -10 0 5 -7 13 -16 16 -10 4 -14 1 -12
-6z"/>
<path d="M8945 4259 c-33 -12 -82 -27 -110 -35 l-50 -14 88 5 c89 5 104 2 65
-15 -18 -7 -13 -8 17 -3 44 7 80 27 80 46 0 11 -19 38 -27 36 -2 0 -30 -9 -63
-20z"/>
<path d="M3046 4242 c-3 -6 -1 -14 5 -17 15 -10 25 3 12 16 -7 7 -13 7 -17 1z"/>
<path d="M8700 4193 c-25 -2 -52 -6 -60 -10 -8 -3 -22 -7 -30 -9 -67 -14 -120
-25 -145 -30 -39 -8 -45 -14 -14 -15 21 -1 21 -2 -6 -9 l-30 -8 33 -1 c17 0
32 -6 32 -12 0 -8 -19 -10 -62 -7 -35 3 -53 3 -40 1 12 -2 22 -8 22 -12 0 -5
-28 -2 -62 6 -40 9 -79 12 -108 8 -25 -4 -81 -12 -125 -19 -71 -10 -80 -13
-83 -33 -2 -14 2 -24 10 -25 7 0 18 -2 23 -3 6 -2 19 -4 30 -5 11 -1 15 -4 8
-7 -30 -12 -9 -23 43 -23 53 0 194 19 204 27 2 2 -2 8 -10 13 -12 8 -11 10 6
10 12 0 27 7 34 15 7 8 26 15 42 15 19 0 27 4 22 11 -5 8 3 10 24 7 17 -2 28
0 25 4 -3 5 3 8 13 6 13 -2 19 3 18 15 -2 24 23 22 31 -3 7 -21 22 -25 44 -11
8 6 24 6 38 0 18 -6 23 -5 23 6 0 8 7 15 15 15 8 0 15 -7 15 -15 0 -8 7 -15
15 -15 8 0 15 7 15 15 0 9 9 15 24 15 13 0 29 7 36 15 7 9 19 14 26 11 7 -3
23 4 36 16 l23 20 -32 -6 c-18 -4 -34 -3 -38 3 -3 6 -1 11 4 11 6 0 11 4 11 8
0 9 -22 10 -100 5z"/>
<path d="M12027 4106 c10 -13 19 -23 21 -21 7 6 -19 45 -29 45 -5 0 -2 -11 8
-24z"/>
<path d="M3291 3914 c0 -11 3 -14 6 -6 3 7 2 16 -1 19 -3 4 -6 -2 -5 -13z"/>
<path d="M11005 3700 c-3 -5 1 -13 10 -16 22 -9 29 1 11 15 -10 8 -16 9 -21 1z"/>
</g>
</svg>
